# Blender v2.78 (sub 0) OBJ File: 'smbpie.blend'
# www.blender.org
mtllib smbpie.mtl
o Cylinder_Cylinder.006
v 0.000000 2.002323 -1.300000
v 0.000000 2.702322 -1.300000
v 0.253617 2.002323 -1.275021
v 0.253617 2.702322 -1.275021
v 0.497488 2.002323 -1.201043
v 0.497488 2.702322 -1.201043
v 0.722241 2.002323 -1.080910
v 0.722241 2.702322 -1.080910
v 0.919239 2.002323 -0.919239
v 0.919239 2.702322 -0.919239
v 1.080911 2.002323 -0.722241
v 1.080911 2.702322 -0.722241
v 1.201043 2.002323 -0.497488
v 1.201043 2.702322 -0.497488
v 1.275021 2.002323 -0.253617
v 1.275021 2.702322 -0.253617
v 1.300000 2.002323 -0.000000
v 1.300000 2.702322 -0.000000
v 1.275021 2.002323 0.253617
v 1.275021 2.702322 0.253617
v 1.201043 2.002323 0.497488
v 1.201043 2.702322 0.497488
v 1.080911 2.002323 0.722241
v 1.080911 2.702322 0.722241
v 0.919239 2.002323 0.919239
v 0.919239 2.702322 0.919239
v 0.722241 2.002323 1.080911
v 0.722241 2.702322 1.080911
v 0.497488 2.002323 1.201043
v 0.497488 2.702322 1.201043
v 0.253617 2.002323 1.275021
v 0.253617 2.702322 1.275021
v -0.000000 2.002323 1.300000
v -0.000000 2.702322 1.300000
v -0.253618 2.002323 1.275021
v -0.253618 2.702322 1.275021
v -0.497489 2.002323 1.201043
v -0.497489 2.702322 1.201043
v -0.722242 2.002323 1.080910
v -0.722242 2.702322 1.080910
v -0.919239 2.002323 0.919238
v -0.919239 2.702322 0.919238
v -1.080911 2.002323 0.722241
v -1.080911 2.702322 0.722241
v -1.201044 2.002323 0.497487
v -1.201044 2.702322 0.497487
v -1.275021 2.002323 0.253616
v -1.275021 2.702322 0.253616
v -1.300000 2.002323 -0.000001
v -1.300000 2.702322 -0.000001
v -1.275021 2.002323 -0.253619
v -1.275021 2.702322 -0.253619
v -1.201043 2.002323 -0.497490
v -1.201043 2.702322 -0.497490
v -1.080910 2.002323 -0.722243
v -1.080910 2.702322 -0.722243
v -0.919238 2.002323 -0.919240
v -0.919238 2.702322 -0.919240
v -0.722240 2.002323 -1.080911
v -0.722240 2.702322 -1.080911
v -0.497487 2.002323 -1.201044
v -0.497487 2.702322 -1.201044
v -0.253615 2.002323 -1.275021
v -0.253615 2.702322 -1.275021
v 0.582029 2.702323 0.388899
v 0.582029 2.002323 0.388899
v 0.000000 2.702323 -0.700000
v 0.000000 2.002323 -0.700000
v -0.136562 2.702323 -0.686550
v -0.136562 2.002323 -0.686550
v -0.267877 2.702323 -0.646716
v -0.267877 2.002323 -0.646716
v -0.646716 2.702323 0.267878
v -0.646716 2.002323 0.267878
v -0.582029 2.702323 0.388899
v -0.582029 2.002323 0.388899
v -0.686550 2.702323 0.136563
v -0.686550 2.002323 0.136563
v -0.494975 2.702323 0.494974
v -0.494975 2.002323 0.494974
v -0.136563 2.702323 0.686550
v -0.136564 2.002323 0.686550
v -0.000000 2.702323 0.700000
v -0.000000 2.002323 0.700000
v -0.267879 2.702323 0.646716
v -0.267879 2.002323 0.646716
v 0.686550 2.702323 -0.136563
v 0.686550 2.002323 -0.136563
v 0.388899 2.702323 -0.582029
v 0.388899 2.002323 -0.582029
v 0.700000 2.702323 -0.000000
v 0.700000 2.002323 -0.000000
v 0.646716 2.702323 -0.267878
v 0.646716 2.002323 -0.267878
v 0.136563 2.702323 0.686550
v 0.136563 2.002323 0.686550
v -0.494974 2.702323 -0.494975
v -0.494974 2.002323 -0.494975
v -0.388898 2.702323 -0.582029
v -0.388898 2.002323 -0.582029
v -0.582028 2.702323 -0.388900
v -0.582028 2.002323 -0.388900
v 0.686550 2.702323 0.136563
v 0.686550 2.002323 0.136563
v 0.388899 2.702323 0.582029
v 0.388899 2.002323 0.582029
v 0.494975 2.702323 0.494975
v 0.494975 2.002323 0.494975
v 0.646716 2.702323 0.267878
v 0.646716 2.002323 0.267878
v -0.700000 2.702323 -0.000001
v -0.700000 2.002323 -0.000001
v -0.388900 2.702323 0.582029
v -0.388899 2.002323 0.582029
v -0.686550 2.702323 -0.136564
v -0.686550 2.002323 -0.136564
v 0.494975 2.702323 -0.494975
v 0.494975 2.002323 -0.494975
v 0.267878 2.702323 0.646716
v 0.267878 2.002323 0.646716
v 0.582029 2.702323 -0.388899
v 0.582029 2.002323 -0.388899
v -0.646715 2.702323 -0.267879
v -0.646715 2.002323 -0.267879
v 0.267878 2.702323 -0.646716
v 0.267878 2.002323 -0.646716
v 0.136563 2.702323 -0.686550
v 0.136563 2.002323 -0.686550
v 0.000000 0.002323 -1.000000
v 0.000000 2.002323 -1.000000
v 0.195090 0.002323 -0.980785
v 0.195090 2.002323 -0.980785
v 0.382683 0.002323 -0.923880
v 0.382683 2.002323 -0.923880
v 0.555570 0.002323 -0.831470
v 0.555570 2.002323 -0.831470
v 0.707107 0.002323 -0.707107
v 0.707107 2.002323 -0.707107
v 0.831470 0.002323 -0.555570
v 0.831470 2.002323 -0.555570
v 0.923880 0.002323 -0.382683
v 0.923880 2.002323 -0.382683
v 0.980785 0.002323 -0.195090
v 0.980785 2.002323 -0.195090
v 1.000000 0.002323 -0.000000
v 1.000000 2.002323 -0.000000
v 0.980785 0.002323 0.195090
v 0.980785 2.002323 0.195090
v 0.923880 0.002323 0.382683
v 0.923880 2.002323 0.382683
v 0.831470 0.002323 0.555570
v 0.831470 2.002323 0.555570
v 0.707107 0.002323 0.707107
v 0.707107 2.002323 0.707107
v 0.555570 0.002323 0.831470
v 0.555570 2.002323 0.831470
v 0.382683 0.002323 0.923880
v 0.382683 2.002323 0.923880
v 0.195090 0.002323 0.980785
v 0.195090 2.002323 0.980785
v -0.000000 0.002323 1.000000
v -0.000000 2.002323 1.000000
v -0.195091 0.002323 0.980785
v -0.195091 2.002323 0.980785
v -0.382684 0.002323 0.923879
v -0.382684 2.002323 0.923879
v -0.555571 0.002323 0.831469
v -0.555571 2.002323 0.831469
v -0.707107 0.002323 0.707106
v -0.707107 2.002323 0.707106
v -0.831470 0.002323 0.555570
v -0.831470 2.002323 0.555570
v -0.923880 0.002323 0.382683
v -0.923880 2.002323 0.382683
v -0.980785 0.002323 0.195089
v -0.980785 2.002323 0.195089
v -1.000000 0.002323 -0.000001
v -1.000000 2.002323 -0.000001
v -0.980785 0.002323 -0.195091
v -0.980785 2.002323 -0.195091
v -0.923879 0.002323 -0.382684
v -0.923879 2.002323 -0.382684
v -0.831469 0.002323 -0.555571
v -0.831469 2.002323 -0.555571
v -0.707106 0.002323 -0.707108
v -0.707106 2.002323 -0.707108
v -0.555569 0.002323 -0.831470
v -0.555569 2.002323 -0.831470
v -0.382682 0.002323 -0.923880
v -0.382682 2.002323 -0.923880
v -0.195089 0.002323 -0.980786
v -0.195089 2.002323 -0.980786
v 0.582029 2.002323 0.388899
v 0.582029 0.002323 0.388899
v 0.000000 2.002323 -0.700000
v 0.000000 0.002323 -0.700000
v -0.136562 2.002323 -0.686550
v -0.136562 0.002323 -0.686550
v -0.267877 2.002323 -0.646716
v -0.267877 0.002323 -0.646716
v -0.646716 2.002323 0.267878
v -0.646716 0.002323 0.267878
v -0.582029 2.002323 0.388899
v -0.582029 0.002323 0.388899
v -0.686550 2.002323 0.136563
v -0.686550 0.002323 0.136563
v -0.494975 2.002323 0.494974
v -0.494975 0.002323 0.494974
v -0.136564 2.002323 0.686550
v -0.136564 0.002323 0.686550
v -0.000000 2.002323 0.700000
v -0.000000 0.002323 0.700000
v -0.267879 2.002323 0.646716
v -0.267879 0.002323 0.646716
v 0.686550 2.002323 -0.136563
v 0.686550 0.002323 -0.136563
v 0.388899 2.002323 -0.582029
v 0.388899 0.002323 -0.582029
v 0.700000 2.002323 -0.000000
v 0.700000 0.002323 -0.000000
v 0.646716 2.002323 -0.267878
v 0.646716 0.002323 -0.267878
v 0.136563 2.002323 0.686550
v 0.136563 0.002323 0.686550
v -0.494974 2.002323 -0.494975
v -0.494974 0.002323 -0.494975
v -0.388898 2.002323 -0.582029
v -0.388898 0.002323 -0.582029
v -0.582028 2.002323 -0.388900
v -0.582028 0.002323 -0.388900
v 0.686550 2.002323 0.136563
v 0.686550 0.002323 0.136563
v 0.388899 2.002323 0.582029
v 0.388899 0.002323 0.582029
v 0.494975 2.002323 0.494975
v 0.494975 0.002323 0.494975
v 0.646716 2.002323 0.267878
v 0.646716 0.002323 0.267878
v -0.700000 2.002323 -0.000001
v -0.700000 0.002323 -0.000001
v -0.388900 2.002323 0.582029
v -0.388900 0.002323 0.582029
v -0.686550 2.002323 -0.136564
v -0.686550 0.002323 -0.136564
v 0.494975 2.002323 -0.494975
v 0.494975 0.002323 -0.494975
v 0.267878 2.002323 0.646716
v 0.267878 0.002323 0.646716
v 0.582029 2.002323 -0.388899
v 0.582029 0.002323 -0.388899
v -0.646715 2.002323 -0.267879
v -0.646715 0.002323 -0.267879
v 0.267878 2.002323 -0.646716
v 0.267878 0.002323 -0.646716
v 0.136563 2.002323 -0.686550
v 0.136563 0.002323 -0.686550
vn 0.0000 0.6857 -0.7279
vn 0.1420 -0.6857 -0.7139
vn 0.0000 -0.6857 -0.7279
vn 0.1420 0.6857 -0.7139
vn 0.2785 -0.6857 -0.6725
vn 0.2785 0.6857 -0.6725
vn 0.4044 -0.6857 -0.6052
vn 0.4044 0.6857 -0.6052
vn 0.5147 -0.6857 -0.5147
vn 0.5147 0.6857 -0.5147
vn 0.6052 -0.6857 -0.4044
vn 0.6052 0.6857 -0.4044
vn 0.6725 -0.6857 -0.2785
vn 0.6725 0.6857 -0.2785
vn 0.7139 -0.6857 -0.1420
vn 0.7139 0.6857 -0.1420
vn 0.7279 -0.6857 0.0000
vn 0.7279 0.6857 0.0000
vn 0.7139 -0.6857 0.1420
vn 0.7139 0.6857 0.1420
vn 0.6725 -0.6857 0.2785
vn 0.6725 0.6857 0.2785
vn 0.6052 -0.6857 0.4044
vn 0.6052 0.6857 0.4044
vn 0.5147 -0.6857 0.5147
vn 0.5147 0.6857 0.5147
vn 0.4044 -0.6857 0.6052
vn 0.4044 0.6857 0.6052
vn 0.2785 -0.6857 0.6725
vn 0.2785 0.6857 0.6725
vn 0.1420 -0.6857 0.7139
vn 0.1420 0.6857 0.7139
vn 0.0000 -0.6857 0.7279
vn 0.0000 0.6857 0.7279
vn -0.1420 -0.6857 0.7139
vn -0.1420 0.6857 0.7139
vn -0.2785 -0.6857 0.6725
vn -0.2785 0.6857 0.6725
vn -0.4044 -0.6857 0.6052
vn -0.4044 0.6857 0.6052
vn -0.5147 -0.6857 0.5147
vn -0.5147 0.6857 0.5147
vn -0.6052 -0.6857 0.4044
vn -0.6052 0.6857 0.4044
vn -0.6725 -0.6857 0.2785
vn -0.6725 0.6857 0.2785
vn -0.7139 -0.6857 0.1420
vn -0.7139 0.6857 0.1420
vn -0.7279 -0.6857 0.0000
vn -0.7279 0.6857 0.0000
vn -0.7139 -0.6857 -0.1420
vn -0.7139 0.6857 -0.1420
vn -0.6725 -0.6857 -0.2785
vn -0.6725 0.6857 -0.2785
vn -0.6052 -0.6857 -0.4044
vn -0.6052 0.6857 -0.4044
vn -0.5147 -0.6857 -0.5147
vn -0.5147 0.6857 -0.5147
vn -0.4044 -0.6857 -0.6052
vn -0.4044 0.6857 -0.6052
vn -0.2785 -0.6857 -0.6725
vn 0.0000 0.7298 0.6836
vn -0.1333 0.7298 0.6705
vn -0.2785 0.6857 -0.6725
vn -0.1420 -0.6857 -0.7139
vn -0.1420 0.6857 -0.7139
vn -0.1333 -0.7298 0.6705
vn 0.0000 -0.7298 0.6836
vn -0.6705 0.7298 -0.1333
vn -0.6836 -0.7298 0.0000
vn -0.6705 -0.7298 -0.1333
vn -0.4834 0.7298 -0.4834
vn -0.5684 -0.7298 -0.3798
vn -0.4834 -0.7298 -0.4834
vn -0.5684 0.7298 -0.3798
vn -0.6316 -0.7298 -0.2616
vn 0.6705 0.7298 0.1333
vn 0.6836 -0.7298 0.0000
vn 0.6705 -0.7298 0.1334
vn -0.6705 0.7298 0.1333
vn -0.6316 -0.7298 0.2616
vn -0.6705 -0.7298 0.1333
vn -0.6836 0.7298 0.0000
vn -0.5684 0.7298 0.3798
vn -0.4834 -0.7298 0.4834
vn -0.5684 -0.7298 0.3798
vn 0.1333 -0.7298 0.6705
vn 0.1333 0.7298 -0.6705
vn 0.0000 -0.7298 -0.6836
vn 0.1333 -0.7298 -0.6705
vn 0.5684 0.7298 0.3798
vn 0.6316 -0.7298 0.2616
vn 0.5684 -0.7298 0.3798
vn 0.0000 0.7298 -0.6836
vn -0.1333 -0.7298 -0.6705
vn 0.1333 0.7298 0.6705
vn 0.2616 -0.7298 0.6316
vn -0.4834 0.7298 0.4834
vn -0.3798 -0.7298 0.5684
vn 0.3798 0.7298 -0.5684
vn 0.2616 -0.7298 -0.6316
vn 0.3798 -0.7298 -0.5684
vn -0.3798 0.7298 0.5684
vn -0.2616 -0.7298 0.6316
vn -0.3798 0.7298 -0.5684
vn -0.3798 -0.7298 -0.5684
vn 0.3798 0.7298 0.5684
vn 0.4834 -0.7298 0.4834
vn 0.3798 -0.7298 0.5684
vn 0.6316 0.7298 0.2616
vn -0.2616 0.7298 -0.6316
vn -0.2616 -0.7298 -0.6316
vn 0.4834 0.7298 -0.4834
vn 0.4834 -0.7298 -0.4834
vn 0.6316 0.7298 -0.2616
vn 0.5684 -0.7298 -0.3798
vn 0.6316 -0.7298 -0.2616
vn -0.6316 0.7298 0.2616
vn 0.6836 0.7298 0.0000
vn 0.6705 -0.7298 -0.1333
vn -0.6316 0.7298 -0.2616
vn 0.2616 0.7298 0.6316
vn -0.1333 0.7298 -0.6705
vn 0.6705 0.7298 -0.1333
vn 0.4834 0.7298 0.4834
vn 0.5684 0.7298 -0.3798
vn 0.6705 0.7298 0.1334
vn 0.2616 0.7298 -0.6316
vn -0.2616 0.7298 0.6316
usemtl None
s 1
f 2//1 3//2 1//3
f 4//4 5//5 3//2
f 6//6 7//7 5//5
f 8//8 9//9 7//7
f 10//10 11//11 9//9
f 12//12 13//13 11//11
f 14//14 15//15 13//13
f 16//16 17//17 15//15
f 18//18 19//19 17//17
f 20//20 21//21 19//19
f 22//22 23//23 21//21
f 24//24 25//25 23//23
f 26//26 27//27 25//25
f 28//28 29//29 27//27
f 30//30 31//31 29//29
f 32//32 33//33 31//31
f 34//34 35//35 33//33
f 36//36 37//37 35//35
f 38//38 39//39 37//37
f 40//40 41//41 39//39
f 42//42 43//43 41//41
f 44//44 45//45 43//43
f 46//46 47//47 45//45
f 48//48 49//49 47//47
f 50//50 51//51 49//49
f 52//52 53//53 51//51
f 54//54 55//55 53//53
f 56//56 57//57 55//55
f 58//58 59//59 57//57
f 60//60 61//61 59//59
f 67//62 127//63 4//4
f 62//64 63//65 61//61
f 64//66 1//3 63//65
f 128//67 68//68 3//2
f 103//69 92//70 104//71
f 107//72 66//73 108//74
f 65//75 110//76 66//73
f 115//77 112//78 116//79
f 87//80 94//81 88//82
f 91//83 88//82 92//70
f 121//84 118//85 122//86
f 67//62 70//87 68//68
f 81//88 84//89 82//90
f 101//91 124//92 102//93
f 83//94 96//95 84//89
f 69//96 72//97 70//87
f 117//98 90//99 118//85
f 113//100 86//101 114//102
f 83//94 81//88 36//36
f 89//103 126//104 90//99
f 105//105 108//74 106//106
f 99//107 98//108 100//109
f 123//110 116//79 124//92
f 119//111 106//106 120//112
f 79//113 114//102 80//114
f 73//115 76//116 74//117
f 127//63 68//68 128//67
f 93//118 122//86 94//81
f 111//119 78//120 112//78
f 109//121 104//71 110//76
f 86//101 81//88 82//90
f 71//122 100//109 72//97
f 126//104 127//63 128//67
f 95//123 120//112 96//95
f 77//124 74//117 78//120
f 97//125 102//93 98//108
f 84//89 96//95 31//31
f 75//126 80//114 76//116
f 130//1 131//2 129//3
f 132//4 133//5 131//2
f 134//6 135//7 133//5
f 136//8 137//9 135//7
f 138//10 139//11 137//9
f 140//12 141//13 139//11
f 142//14 143//15 141//13
f 144//16 145//17 143//15
f 146//18 147//19 145//17
f 148//20 149//21 147//19
f 150//22 151//23 149//21
f 152//24 153//25 151//23
f 154//26 155//27 153//25
f 156//28 157//29 155//27
f 158//30 159//31 157//29
f 160//32 161//33 159//31
f 162//34 163//35 161//33
f 164//36 165//37 163//35
f 166//38 167//39 165//37
f 168//40 169//41 167//39
f 170//42 171//43 169//41
f 172//44 173//45 171//43
f 174//46 175//47 173//45
f 176//48 177//49 175//47
f 178//50 179//51 177//49
f 180//52 181//53 179//51
f 182//54 183//55 181//53
f 184//56 185//57 183//55
f 186//58 187//59 185//57
f 188//60 189//61 187//59
f 195//62 255//63 132//4
f 190//64 191//65 189//61
f 192//66 129//3 191//65
f 196//68 129//3 131//2
f 231//69 220//70 232//71
f 235//72 194//73 236//74
f 193//75 238//76 194//73
f 243//127 240//78 244//79
f 215//80 222//81 216//82
f 219//83 216//82 220//70
f 249//84 246//85 250//86
f 195//62 198//87 196//68
f 209//88 212//89 210//90
f 229//91 252//92 230//93
f 211//94 224//95 212//89
f 197//96 200//97 198//87
f 245//98 218//99 246//85
f 241//100 214//101 242//102
f 211//94 209//88 164//36
f 217//103 254//104 218//99
f 233//105 236//74 234//106
f 227//107 226//108 228//109
f 251//110 244//79 252//92
f 247//111 234//106 248//112
f 207//113 242//102 208//114
f 201//115 204//116 202//117
f 255//63 196//68 256//67
f 221//118 250//86 222//81
f 239//119 206//120 240//78
f 237//121 232//71 238//76
f 213//128 210//90 214//101
f 199//122 228//109 200//97
f 253//129 256//67 254//104
f 223//123 248//112 224//95
f 205//124 202//117 206//120
f 225//125 230//93 226//108
f 212//89 224//95 159//31
f 203//126 208//114 204//116
f 2//1 4//4 3//2
f 4//4 6//6 5//5
f 6//6 8//8 7//7
f 8//8 10//10 9//9
f 10//10 12//12 11//11
f 12//12 14//14 13//13
f 14//14 16//16 15//15
f 16//16 18//18 17//17
f 18//18 20//20 19//19
f 20//20 22//22 21//21
f 22//22 24//24 23//23
f 24//24 26//26 25//25
f 26//26 28//28 27//27
f 28//28 30//30 29//29
f 30//30 32//32 31//31
f 32//32 34//34 33//33
f 34//34 36//36 35//35
f 36//36 38//38 37//37
f 38//38 40//40 39//39
f 40//40 42//42 41//41
f 42//42 44//44 43//43
f 44//44 46//46 45//45
f 46//46 48//48 47//47
f 48//48 50//50 49//49
f 50//50 52//52 51//51
f 52//52 54//54 53//53
f 54//54 56//56 55//55
f 56//56 58//58 57//57
f 58//58 60//60 59//59
f 60//60 62//64 61//61
f 6//6 4//4 127//63
f 2//1 64//66 69//96
f 62//64 60//60 71//122
f 58//58 56//56 101//91
f 54//54 52//52 123//110
f 50//50 111//119 115//77
f 50//50 115//77 52//52
f 56//56 54//54 123//110
f 64//66 62//64 69//96
f 8//8 6//6 125//129
f 12//12 10//10 121//84
f 16//16 14//14 87//80
f 91//83 18//18 87//80
f 87//80 18//18 16//16
f 14//14 93//118 87//80
f 4//4 2//1 67//62
f 52//52 115//77 123//110
f 56//56 123//110 101//91
f 14//14 12//12 93//118
f 93//118 12//12 121//84
f 58//58 101//91 97//125
f 58//58 97//125 99//107
f 121//84 10//10 117//98
f 117//98 10//10 8//8
f 58//58 99//107 60//60
f 99//107 71//122 60//60
f 89//103 117//98 8//8
f 125//129 89//103 8//8
f 62//64 71//122 69//96
f 2//1 69//96 67//62
f 127//63 125//129 6//6
f 62//64 64//66 63//65
f 64//66 2//1 1//3
f 63//65 1//3 70//87
f 3//2 5//5 128//67
f 7//7 9//9 118//85
f 11//11 13//13 94//81
f 15//15 17//17 92//70
f 15//15 92//70 88//82
f 9//9 11//11 122//86
f 63//65 70//87 72//97
f 59//59 61//61 72//97
f 55//55 57//57 98//108
f 51//51 53//53 124//92
f 112//78 49//49 51//51
f 116//79 112//78 51//51
f 53//53 55//55 102//93
f 61//61 63//65 72//97
f 13//13 15//15 88//82
f 13//13 88//82 94//81
f 57//57 59//59 100//109
f 124//92 116//79 51//51
f 102//93 124//92 53//53
f 11//11 94//81 122//86
f 9//9 122//86 118//85
f 98//108 102//93 55//55
f 100//109 98//108 57//57
f 7//7 118//85 90//99
f 7//7 90//99 126//104
f 72//97 100//109 59//59
f 1//3 68//68 70//87
f 7//7 126//104 5//5
f 126//104 128//67 5//5
f 1//3 3//2 68//68
f 103//69 91//83 92//70
f 107//72 65//75 66//73
f 65//75 109//121 110//76
f 115//77 111//119 112//78
f 87//80 93//118 94//81
f 91//83 87//80 88//82
f 121//84 117//98 118//85
f 67//62 69//96 70//87
f 81//88 83//94 84//89
f 101//91 123//110 124//92
f 83//94 95//123 96//95
f 69//96 71//122 72//97
f 117//98 89//103 90//99
f 113//100 85//128 86//101
f 20//20 18//18 91//83
f 20//20 91//83 103//69
f 24//24 22//22 109//121
f 28//28 26//26 105//105
f 32//32 30//30 119//111
f 36//36 34//34 83//94
f 40//40 38//38 85//128
f 44//44 42//42 75//126
f 48//48 46//46 77//124
f 111//119 50//50 48//48
f 77//124 111//119 48//48
f 46//46 73//115 77//124
f 38//38 36//36 81//88
f 30//30 28//28 119//111
f 22//22 20//20 103//69
f 22//22 103//69 109//121
f 34//34 32//32 95//123
f 46//46 44//44 73//115
f 73//115 44//44 75//126
f 24//24 109//121 65//75
f 24//24 65//75 107//72
f 75//126 42//42 79//113
f 79//113 42//42 40//40
f 24//24 107//72 26//26
f 107//72 105//105 26//26
f 113//100 79//113 40//40
f 85//128 113//100 40//40
f 28//28 105//105 119//111
f 32//32 119//111 95//123
f 81//88 85//128 38//38
f 34//34 95//123 83//94
f 89//103 125//129 126//104
f 105//105 107//72 108//74
f 99//107 97//125 98//108
f 123//110 115//77 116//79
f 119//111 105//105 106//106
f 79//113 113//100 114//102
f 73//115 75//126 76//116
f 127//63 67//62 68//68
f 93//118 121//84 122//86
f 111//119 77//124 78//120
f 109//121 103//69 104//71
f 86//101 85//128 81//88
f 71//122 99//107 100//109
f 126//104 125//129 127//63
f 95//123 119//111 120//112
f 77//124 73//115 74//117
f 97//125 101//91 102//93
f 47//47 49//49 112//78
f 47//47 112//78 78//120
f 43//43 45//45 74//117
f 39//39 41//41 114//102
f 35//35 37//37 86//101
f 31//31 33//33 84//89
f 27//27 29//29 120//112
f 23//23 25//25 66//73
f 19//19 21//21 104//71
f 92//70 17//17 19//19
f 104//71 92//70 19//19
f 21//21 110//76 104//71
f 29//29 31//31 96//95
f 37//37 39//39 86//101
f 45//45 47//47 78//120
f 45//45 78//120 74//117
f 33//33 35//35 82//90
f 21//21 23//23 110//76
f 110//76 23//23 66//73
f 43//43 74//117 76//116
f 43//43 76//116 80//114
f 66//73 25//25 108//74
f 108//74 25//25 27//27
f 43//43 80//114 41//41
f 80//114 114//102 41//41
f 106//106 108//74 27//27
f 120//112 106//106 27//27
f 39//39 114//102 86//101
f 35//35 86//101 82//90
f 96//95 120//112 29//29
f 33//33 82//90 84//89
f 75//126 79//113 80//114
f 130//1 132//4 131//2
f 132//4 134//6 133//5
f 134//6 136//8 135//7
f 136//8 138//10 137//9
f 138//10 140//12 139//11
f 140//12 142//14 141//13
f 142//14 144//16 143//15
f 144//16 146//18 145//17
f 146//18 148//20 147//19
f 148//20 150//22 149//21
f 150//22 152//24 151//23
f 152//24 154//26 153//25
f 154//26 156//28 155//27
f 156//28 158//30 157//29
f 158//30 160//32 159//31
f 160//32 162//34 161//33
f 162//34 164//36 163//35
f 164//36 166//38 165//37
f 166//38 168//40 167//39
f 168//40 170//42 169//41
f 170//42 172//44 171//43
f 172//44 174//46 173//45
f 174//46 176//48 175//47
f 176//48 178//50 177//49
f 178//50 180//52 179//51
f 180//52 182//54 181//53
f 182//54 184//56 183//55
f 184//56 186//58 185//57
f 186//58 188//60 187//59
f 188//60 190//64 189//61
f 134//6 132//4 255//63
f 130//1 192//66 197//96
f 190//64 188//60 199//122
f 186//58 184//56 229//91
f 182//54 180//52 251//110
f 178//50 239//119 243//127
f 178//50 243//127 180//52
f 184//56 182//54 251//110
f 192//66 190//64 197//96
f 136//8 134//6 253//129
f 140//12 138//10 249//84
f 144//16 142//14 215//80
f 219//83 146//18 144//16
f 215//80 219//83 144//16
f 142//14 221//118 215//80
f 132//4 130//1 195//62
f 180//52 243//127 251//110
f 184//56 251//110 229//91
f 142//14 140//12 221//118
f 221//118 140//12 249//84
f 186//58 229//91 225//125
f 186//58 225//125 227//107
f 249//84 138//10 245//98
f 245//98 138//10 136//8
f 186//58 227//107 188//60
f 227//107 199//122 188//60
f 217//103 245//98 136//8
f 253//129 217//103 136//8
f 190//64 199//122 197//96
f 130//1 197//96 195//62
f 255//63 253//129 134//6
f 190//64 192//66 191//65
f 192//66 130//1 129//3
f 191//65 129//3 198//87
f 131//2 133//5 256//67
f 135//7 137//9 246//85
f 139//11 141//13 222//81
f 143//15 145//17 220//70
f 143//15 220//70 216//82
f 137//9 139//11 250//86
f 129//3 196//68 198//87
f 187//59 189//61 200//97
f 183//55 185//57 230//93
f 179//51 181//53 244//79
f 240//78 177//49 179//51
f 244//79 240//78 179//51
f 181//53 252//92 244//79
f 189//61 191//65 198//87
f 141//13 143//15 216//82
f 141//13 216//82 222//81
f 181//53 183//55 252//92
f 252//92 183//55 230//93
f 139//11 222//81 250//86
f 137//9 250//86 246//85
f 230//93 185//57 226//108
f 226//108 185//57 187//59
f 135//7 246//85 218//99
f 135//7 218//99 254//104
f 228//109 226//108 187//59
f 200//97 228//109 187//59
f 135//7 254//104 133//5
f 254//104 256//67 133//5
f 198//87 200//97 189//61
f 256//67 196//68 131//2
f 231//69 219//83 220//70
f 235//72 193//75 194//73
f 193//75 237//121 238//76
f 243//127 239//119 240//78
f 215//80 221//118 222//81
f 219//83 215//80 216//82
f 249//84 245//98 246//85
f 195//62 197//96 198//87
f 209//88 211//94 212//89
f 229//91 251//110 252//92
f 211//94 223//123 224//95
f 197//96 199//122 200//97
f 245//98 217//103 218//99
f 241//100 213//128 214//101
f 148//20 146//18 219//83
f 148//20 219//83 231//69
f 152//24 150//22 237//121
f 156//28 154//26 233//105
f 160//32 158//30 223//123
f 164//36 162//34 211//94
f 168//40 166//38 213//128
f 172//44 170//42 203//126
f 176//48 174//46 205//124
f 239//119 178//50 176//48
f 205//124 239//119 176//48
f 174//46 201//115 205//124
f 166//38 164//36 209//88
f 158//30 247//111 223//123
f 150//22 148//20 231//69
f 150//22 231//69 237//121
f 162//34 160//32 223//123
f 174//46 172//44 201//115
f 201//115 172//44 203//126
f 152//24 237//121 193//75
f 152//24 193//75 235//72
f 203//126 170//42 207//113
f 207//113 170//42 168//40
f 152//24 235//72 154//26
f 235//72 233//105 154//26
f 241//100 207//113 168//40
f 213//128 241//100 168//40
f 233//105 247//111 156//28
f 156//28 247//111 158//30
f 209//88 213//128 166//38
f 162//34 223//123 211//94
f 217//103 253//129 254//104
f 233//105 235//72 236//74
f 227//107 225//125 226//108
f 251//110 243//127 244//79
f 247//111 233//105 234//106
f 207//113 241//100 242//102
f 201//115 203//126 204//116
f 255//63 195//62 196//68
f 221//118 249//84 250//86
f 239//119 205//124 206//120
f 237//121 231//69 232//71
f 213//128 209//88 210//90
f 199//122 227//107 228//109
f 253//129 255//63 256//67
f 223//123 247//111 248//112
f 205//124 201//115 202//117
f 225//125 229//91 230//93
f 175//47 177//49 240//78
f 175//47 240//78 206//120
f 171//43 173//45 202//117
f 167//39 169//41 242//102
f 163//35 165//37 210//90
f 159//31 161//33 212//89
f 155//27 157//29 248//112
f 151//23 153//25 194//73
f 147//19 149//21 232//71
f 220//70 145//17 147//19
f 232//71 220//70 147//19
f 149//21 238//76 232//71
f 157//29 159//31 224//95
f 165//37 214//101 210//90
f 173//45 175//47 206//120
f 173//45 206//120 202//117
f 161//33 163//35 210//90
f 149//21 151//23 238//76
f 238//76 151//23 194//73
f 171//43 202//117 204//116
f 171//43 204//116 208//114
f 194//73 153//25 236//74
f 236//74 153//25 155//27
f 171//43 208//114 169//41
f 208//114 242//102 169//41
f 234//106 236//74 155//27
f 248//112 234//106 155//27
f 242//102 214//101 167//39
f 167//39 214//101 165//37
f 224//95 248//112 157//29
f 161//33 210//90 212//89
f 203//126 207//113 208//114
